# xmcd
#
# Track frame offsets:
#  150
#  18400
#  38882
#  52582
#  73042
#  100347
#  119330
#  139590
#  157320
#  173965
#
# Disc length: 2668 seconds
#
# Revision: 0
# Processed by: cddbd v1.4b42PL1 Copyright (c) Steve Scherf et al.
# Submitted via: AltoMP3_Maker 3.0
#
DISCID=850a6a0a
DTITLE=Simply Red - Picture Book
DYEAR=1900
DGENRE=
TTITLE0=Come To My Aid
TTITLE1=Sad Old Red
TTITLE2=Look At You Now
TTITLE3=Heaven
TTITLE4=Jericho
TTITLE5=Moneys Too Tight (To Mention)
TTITLE6=Holding Back The Years
TTITLE7=(Open Up The) Red Box
TTITLE8=No Direction
TTITLE9=Picture Book
EXTD=
EXTT0=
EXTT1=
EXTT2=
EXTT3=
EXTT4=
EXTT5=
EXTT6=
EXTT7=
EXTT8=
EXTT9=
PLAYORDER=
